<?xml version="1.0" encoding="UTF-8" ?>
<!DOCTYPE svg PUBLIC "-//W3C//DTD SVG 1.1//EN" "http://www.w3.org/Graphics/SVG/1.1/DTD/svg11.dtd">
<svg width="336pt" height="336pt" viewBox="0 0 336 336" version="1.1" xmlns="http://www.w3.org/2000/svg">
<path fill="#fffffd" d=" M 0.00 0.00 L 336.00 0.00 L 336.00 336.00 L 0.00 336.00 L 0.00 0.00 Z" />
<path fill="#5ab3d2" d=" M 153.84 26.31 C 159.50 25.11 165.34 25.55 171.07 24.97 C 177.02 24.36 183.12 24.43 188.89 26.13 C 201.41 27.89 213.23 33.30 223.85 40.03 C 227.95 42.59 231.22 46.23 235.29 48.83 C 247.64 58.73 258.57 70.50 267.02 83.91 C 269.44 89.44 270.03 95.85 268.45 101.70 C 267.73 104.51 267.41 107.40 267.25 110.30 C 266.51 110.64 265.78 110.99 265.06 111.34 C 264.50 114.88 261.06 116.57 258.51 118.59 C 255.31 121.05 251.10 121.05 247.27 121.21 C 243.79 117.68 238.71 116.32 235.48 112.49 C 232.61 110.02 230.98 106.58 230.16 102.94 C 234.05 102.05 238.10 100.91 242.07 102.06 C 246.39 102.88 249.79 105.94 253.90 107.29 C 255.86 106.82 257.67 105.91 259.52 105.14 C 260.80 101.68 262.37 97.32 259.92 94.01 C 257.75 91.19 254.90 88.96 252.83 86.05 C 251.32 83.79 248.46 83.27 246.13 82.23 C 246.26 81.75 246.50 80.79 246.63 80.31 C 246.30 80.71 245.63 81.52 245.30 81.92 C 243.34 80.42 240.96 79.77 238.56 79.43 C 237.23 77.77 236.08 75.95 234.56 74.44 C 232.82 73.48 230.76 73.41 228.86 73.01 C 228.42 72.34 227.98 71.67 227.55 71.01 C 226.62 70.49 225.70 69.96 224.78 69.43 L 224.29 69.47 C 223.04 70.35 221.47 69.96 220.09 69.68 C 216.09 68.88 212.22 67.44 208.65 65.44 C 207.21 64.93 206.64 63.54 206.03 62.27 C 204.87 62.31 203.71 62.36 202.56 62.41 C 204.81 64.57 207.64 66.15 209.35 68.82 C 205.70 66.89 202.22 64.27 197.90 64.29 C 200.27 65.54 202.69 66.83 204.52 68.86 C 200.68 69.63 196.45 71.32 192.74 69.18 C 188.28 66.74 183.47 64.99 178.41 64.38 C 177.02 61.11 176.40 57.61 176.32 54.08 C 174.19 52.04 172.48 49.62 170.91 47.14 C 171.14 46.38 171.59 44.86 171.82 44.10 C 171.40 44.83 170.56 46.30 170.14 47.03 C 169.11 41.96 166.04 37.37 161.46 34.89 C 157.72 34.16 153.93 33.66 150.13 33.47 C 149.09 34.74 148.03 35.99 146.96 37.23 C 145.85 40.82 144.50 44.33 142.88 47.72 C 142.79 54.68 138.48 60.51 137.23 67.24 C 136.33 67.82 135.44 68.40 134.55 68.98 C 134.54 69.88 134.55 70.79 134.55 71.69 C 132.97 69.99 130.90 71.39 129.08 71.80 C 129.24 72.35 129.57 73.46 129.74 74.01 C 126.94 75.81 124.23 77.74 121.62 79.80 C 121.41 79.41 120.99 78.63 120.79 78.24 C 120.35 80.41 118.20 81.37 116.74 82.78 C 112.71 87.03 106.48 87.51 101.74 90.71 C 101.47 90.36 100.93 89.67 100.66 89.32 C 93.36 94.84 90.54 103.78 86.56 111.61 C 84.42 115.48 86.60 120.25 83.95 123.98 C 83.70 126.36 82.44 128.30 80.54 129.72 C 80.47 131.27 80.42 132.82 80.38 134.37 C 83.28 136.52 84.58 139.99 86.71 142.78 C 90.44 143.14 93.03 140.30 95.64 138.11 C 95.68 146.74 96.74 155.41 99.47 163.62 C 99.98 163.89 100.99 164.41 101.49 164.67 C 101.46 165.80 101.44 166.93 101.41 168.06 C 103.20 171.39 105.13 174.67 107.63 177.53 C 109.65 180.04 112.47 181.95 113.78 184.99 C 116.78 189.12 121.54 191.24 125.52 194.24 C 126.08 197.66 127.63 200.77 128.67 204.03 C 128.30 207.50 126.17 210.54 125.82 214.05 C 125.45 218.25 122.57 221.85 122.69 226.11 C 125.52 229.37 129.47 231.36 132.99 233.76 C 119.44 229.19 106.99 221.88 96.02 212.75 C 95.02 211.73 93.98 210.75 92.91 209.80 C 92.72 208.86 92.53 207.93 92.35 206.99 C 89.10 204.69 88.17 200.64 86.05 197.48 C 85.10 195.41 83.76 193.56 82.24 191.87 C 82.76 191.74 83.78 191.48 84.29 191.34 C 84.25 193.01 85.28 194.07 86.64 194.86 C 86.61 195.48 86.54 196.71 86.50 197.32 C 87.97 198.33 89.45 199.32 90.96 200.27 C 90.70 196.52 87.74 193.96 86.18 190.75 C 85.03 188.43 83.51 186.33 81.73 184.46 C 81.70 183.40 81.67 182.35 81.65 181.31 C 87.41 186.76 89.83 194.96 96.57 199.47 C 100.17 201.79 102.51 205.63 106.37 207.59 C 109.34 209.13 112.14 210.96 114.76 213.05 C 116.44 213.61 118.10 214.24 119.74 214.94 C 116.01 212.50 112.57 209.67 108.71 207.42 C 106.03 203.80 102.21 201.25 99.46 197.68 C 96.23 194.09 93.94 189.81 91.02 185.98 C 86.45 179.94 83.36 172.93 80.76 165.87 C 79.72 160.60 77.50 155.68 76.35 150.45 C 74.85 141.25 73.90 131.73 76.54 122.63 C 77.18 122.25 78.47 121.48 79.12 121.09 C 78.42 120.17 77.73 119.24 77.04 118.32 C 77.92 118.47 79.70 118.76 80.58 118.90 C 83.74 109.93 86.40 100.76 90.37 92.09 C 91.44 87.79 95.18 85.04 97.04 81.14 C 98.99 77.17 102.50 74.40 105.88 71.72 C 105.45 71.45 104.58 70.93 104.15 70.67 C 105.96 70.40 107.75 70.03 109.53 69.57 C 109.60 68.96 109.73 67.75 109.80 67.14 C 112.85 64.82 115.87 62.47 118.90 60.12 C 120.02 58.21 121.72 56.78 123.64 55.70 C 125.35 55.70 127.02 55.37 128.16 53.96 C 126.95 53.40 125.73 52.84 124.51 52.28 C 124.50 51.91 124.48 51.18 124.47 50.82 C 130.55 47.88 136.83 45.48 143.19 43.25 C 133.97 43.22 126.36 49.39 117.82 52.01 C 118.52 50.59 119.25 49.19 119.98 47.79 C 118.92 47.68 117.87 47.59 116.82 47.49 C 118.85 46.79 121.03 46.09 122.27 44.19 C 118.05 45.23 114.23 47.65 109.80 47.87 C 110.83 47.24 111.88 46.63 112.93 46.01 C 112.64 45.29 112.36 44.57 112.07 43.84 C 116.17 42.05 120.17 40.06 124.25 38.23 C 127.51 36.72 131.26 36.34 134.19 34.13 C 140.24 32.68 145.95 30.05 152.09 28.95 C 160.72 27.42 169.52 27.70 178.24 27.19 C 170.21 25.89 161.96 26.32 153.84 26.31 Z" />
<path fill="#fffffd" d=" M 178.77 27.40 C 185.05 27.02 191.02 29.15 196.89 31.08 C 197.50 31.03 198.73 30.94 199.35 30.90 C 197.85 31.17 196.30 31.39 194.79 31.06 C 189.42 29.99 184.08 28.75 178.77 27.40 Z" />
<path fill="#cfc6a8" d=" M 151.21 35.20 C 154.45 35.99 157.74 36.56 161.08 36.64 C 163.80 38.99 166.56 41.55 167.76 45.05 C 169.34 49.31 172.41 52.71 175.26 56.15 C 175.39 60.31 175.95 64.46 177.39 68.38 C 178.99 72.56 178.54 77.08 178.54 81.45 C 173.16 84.04 167.13 79.85 162.07 83.02 C 161.65 82.89 160.82 82.64 160.41 82.52 C 160.94 82.01 161.48 81.50 162.03 81.00 C 158.78 80.72 155.35 81.05 152.29 79.75 C 148.35 77.71 145.09 74.40 143.19 70.39 C 141.23 70.42 139.27 70.47 137.31 70.52 C 139.61 65.80 140.50 60.57 142.86 55.87 C 144.46 48.64 146.07 40.86 151.21 35.20 Z" />
<path fill="#5ab3d2" d=" M 113.52 57.64 C 116.69 55.56 119.70 53.11 123.32 51.83 C 120.11 54.80 115.73 56.30 113.08 59.90 C 113.19 59.34 113.41 58.21 113.52 57.64 Z" />
<path fill="#5ab3d2" d=" M 106.56 58.05 C 110.72 56.62 106.48 61.74 104.41 60.65 C 104.06 59.42 105.71 58.60 106.56 58.05 Z" />
<path fill="#5ab3d2" d=" M 92.25 59.61 C 92.99 59.88 93.73 60.15 94.47 60.41 C 92.86 61.61 93.75 63.80 93.36 65.48 C 90.59 67.59 87.72 70.12 84.18 70.69 C 85.61 69.28 87.14 67.97 88.71 66.71 C 88.57 66.25 88.30 65.34 88.16 64.89 C 89.55 63.62 91.17 62.67 92.90 61.94 C 92.74 61.36 92.41 60.19 92.25 59.61 Z" />
<path fill="#5ab3d2" d=" M 111.52 60.33 C 113.60 60.82 110.81 63.69 109.51 62.83 C 108.95 61.65 110.47 60.49 111.52 60.33 Z" />
<path fill="#5ab3d2" d=" M 93.74 68.70 C 96.12 65.42 99.83 63.59 102.82 60.95 C 101.91 62.33 101.01 63.70 100.09 65.06 C 94.27 71.24 89.02 78.03 83.25 84.30 C 79.93 88.18 78.63 93.32 75.34 97.21 C 76.71 92.43 79.54 88.29 81.79 83.90 C 84.53 77.96 89.82 73.81 93.74 68.70 Z" />
<path fill="#5ab3d2" d=" M 96.97 74.24 C 98.63 72.04 100.49 69.81 103.24 68.98 C 101.74 71.35 99.43 72.99 96.97 74.24 Z" />
<path fill="#cfc6a8" d=" M 201.35 71.39 C 206.73 70.19 212.46 69.63 217.81 71.25 C 220.33 71.98 222.92 72.36 225.52 72.63 C 227.69 74.41 230.42 75.10 232.96 76.16 C 235.12 77.89 236.47 80.64 239.27 81.54 C 243.81 84.09 249.80 84.70 252.74 89.46 C 255.01 92.67 259.69 94.61 259.85 98.99 C 260.45 102.38 256.50 103.59 254.62 105.64 C 249.51 104.23 245.45 100.19 240.01 99.78 C 235.52 98.58 230.70 102.07 226.54 99.39 C 223.07 97.36 219.39 95.72 215.61 94.35 C 214.38 96.06 212.22 97.56 212.52 99.93 C 212.86 102.82 214.21 105.47 214.94 108.27 C 213.50 108.74 212.05 109.21 210.61 109.68 C 207.26 105.40 205.46 99.25 199.81 97.40 C 196.92 96.49 195.01 94.15 193.31 91.80 C 189.06 89.64 184.88 86.65 182.77 82.24 C 184.35 79.75 185.60 76.82 188.28 75.30 C 192.07 72.50 196.91 72.33 201.35 71.39 Z" />
<path fill="#5ab3d2" d=" M 116.59 86.32 C 122.68 79.83 130.23 74.56 138.87 72.15 C 140.30 71.75 141.79 72.10 143.24 72.16 C 140.36 73.77 137.45 75.30 134.54 76.86 C 131.99 78.46 129.26 79.80 126.40 80.77 C 125.26 81.52 124.11 82.26 122.98 83.02 C 122.17 84.18 121.58 85.58 120.42 86.44 C 119.18 86.88 117.85 86.37 116.59 86.32 Z" />
<path fill="#5ab3d2" d=" M 91.61 80.31 C 92.34 80.23 93.08 80.15 93.82 80.06 C 91.32 82.81 89.58 86.25 86.52 88.46 C 87.44 85.30 89.56 82.78 91.61 80.31 Z" />
<path fill="#4d2c23" d=" M 157.93 83.96 C 158.55 83.60 159.79 82.88 160.41 82.52 C 160.82 82.64 161.65 82.89 162.07 83.02 C 168.07 85.92 174.74 85.15 181.18 85.42 C 183.79 88.04 187.03 89.88 189.84 92.28 C 193.45 95.07 198.22 97.44 199.71 102.06 C 201.29 103.84 202.99 105.53 204.46 107.41 C 207.74 111.48 206.97 117.47 210.67 121.32 C 215.48 126.65 217.52 133.70 219.17 140.52 C 219.04 145.44 220.89 150.06 221.28 154.93 C 219.79 157.38 219.54 160.24 219.41 163.03 C 217.73 164.69 217.14 166.99 216.40 169.15 C 215.34 172.31 213.43 175.08 212.03 178.09 C 205.36 182.66 203.30 191.05 197.74 196.60 C 195.52 199.48 191.86 200.46 189.05 202.60 C 186.56 202.47 183.85 202.55 181.92 200.71 C 181.30 200.58 180.06 200.33 179.44 200.21 C 180.04 196.67 181.38 193.33 182.44 189.92 C 179.58 185.87 179.75 180.45 182.31 176.29 C 183.51 174.54 184.75 172.81 185.82 170.96 C 187.88 168.93 190.04 166.86 191.29 164.21 C 191.22 161.88 190.53 159.64 190.08 157.38 C 189.56 158.31 188.53 160.16 188.01 161.09 C 186.83 153.75 182.88 147.38 178.28 141.70 C 174.34 137.47 170.80 132.63 165.53 129.95 C 163.45 125.28 166.80 120.66 166.83 115.96 C 166.81 112.14 167.25 107.99 165.20 104.56 C 160.09 104.05 159.46 98.41 156.88 95.05 C 154.22 91.69 155.04 86.90 157.93 83.96 Z" />
<path fill="#cfc6a8" d=" M 111.38 88.46 C 113.55 88.00 115.94 88.05 118.01 88.93 C 120.21 91.15 121.66 93.99 123.78 96.29 C 122.01 105.82 120.09 115.34 117.43 124.67 C 115.71 127.80 113.66 130.76 112.28 134.08 C 112.72 132.55 113.16 131.01 113.62 129.49 C 112.05 128.55 110.44 127.69 108.80 126.91 C 107.71 124.70 106.76 122.42 105.50 120.30 C 101.07 122.78 98.87 127.70 97.11 132.24 C 94.93 136.17 91.52 140.16 86.86 140.95 C 85.51 138.18 84.04 135.48 82.44 132.87 C 83.02 131.74 83.61 130.62 84.20 129.50 C 86.91 119.01 90.66 108.74 96.72 99.69 C 99.49 93.79 105.38 90.32 111.38 88.46 Z" />
<path fill="#4d2c23" d=" M 136.06 94.00 C 140.37 91.72 145.37 87.94 150.40 90.04 C 152.39 96.59 157.12 101.69 160.72 107.34 C 164.23 113.51 162.55 120.93 159.87 127.07 C 161.97 132.26 165.11 137.44 170.38 139.91 C 172.94 142.33 175.81 144.39 178.59 146.56 C 179.76 148.64 180.71 150.88 182.35 152.66 C 183.24 154.70 184.14 156.73 185.09 158.74 C 184.56 158.79 183.50 158.91 182.97 158.96 C 183.70 159.13 185.15 159.45 185.88 159.62 C 182.80 164.64 176.60 167.14 174.63 172.91 C 175.20 176.78 178.72 179.97 177.81 184.07 C 176.73 189.60 177.26 195.24 177.33 200.83 C 176.95 201.43 176.20 202.62 175.82 203.22 C 172.68 205.27 168.50 204.10 165.57 206.64 L 167.16 205.00 C 163.32 204.12 158.85 204.77 155.86 201.71 C 155.22 201.69 153.95 201.65 153.31 201.63 C 150.59 199.52 147.08 199.12 143.76 199.16 C 142.67 197.40 141.76 195.53 141.04 193.59 C 139.92 193.58 138.80 193.56 137.68 193.55 C 137.54 193.00 137.27 191.89 137.13 191.33 C 131.73 192.90 134.16 183.80 128.88 183.91 C 127.88 181.82 127.08 179.65 126.30 177.47 C 125.53 174.86 123.13 173.22 122.03 170.78 C 120.22 167.79 121.77 164.24 122.20 161.09 C 120.87 159.09 119.74 156.97 118.39 155.00 C 118.14 147.98 118.67 140.92 117.53 133.97 C 118.16 129.44 120.12 125.24 122.04 121.13 C 123.59 117.35 123.00 113.15 123.73 109.21 C 124.56 106.77 125.56 104.39 126.15 101.87 C 130.15 100.08 132.00 95.66 136.06 94.00 Z" />
<path fill="#5ab3d2" d=" M 65.38 124.89 C 66.31 118.72 68.03 112.55 71.21 107.15 C 70.24 112.53 68.08 117.62 67.20 123.03 C 66.56 126.54 66.85 130.16 65.97 133.63 C 65.78 133.67 65.40 133.75 65.22 133.78 C 64.22 130.87 64.86 127.82 65.38 124.89 Z" />
<path fill="#5ab3d2" d=" M 73.78 117.35 C 73.97 117.38 74.35 117.43 74.54 117.46 C 73.45 123.92 71.97 130.30 70.56 136.69 C 73.05 136.23 73.37 133.72 73.87 131.67 C 74.07 134.91 73.82 138.20 72.68 141.27 C 72.66 140.20 72.64 138.08 72.62 137.02 C 72.03 137.03 70.85 137.05 70.26 137.06 C 70.49 138.64 70.74 140.23 70.98 141.81 C 70.53 141.63 69.61 141.26 69.16 141.07 C 68.77 143.48 70.94 147.88 67.26 148.23 C 67.29 143.61 67.10 138.95 67.76 134.36 C 68.46 134.39 69.87 134.45 70.58 134.48 C 70.52 133.62 70.42 131.89 70.37 131.03 C 69.88 129.52 69.44 128.00 69.03 126.47 C 69.59 126.64 70.71 126.99 71.26 127.16 C 72.08 123.89 72.98 120.63 73.78 117.35 Z" />
<path fill="#5ab3d2" d=" M 62.17 127.35 C 61.73 125.83 61.73 124.26 62.19 122.75 C 62.26 124.28 62.25 125.81 62.17 127.35 Z" />
<path fill="#5ab3d2" d=" M 61.95 143.15 C 62.59 140.60 61.68 135.80 64.84 135.05 C 65.81 137.63 65.52 140.43 65.47 143.13 C 65.33 146.51 65.69 150.01 64.37 153.23 C 61.62 151.44 61.33 148.41 61.51 145.44 C 60.98 145.18 59.93 144.65 59.40 144.39 C 59.54 143.36 59.81 141.31 59.95 140.28 C 60.62 141.24 61.29 142.20 61.95 143.15 Z" />
<path fill="#5ab3d2" d=" M 259.63 143.34 C 261.23 141.28 262.22 138.84 263.63 136.66 C 263.05 140.43 261.68 144.01 260.79 147.70 C 260.39 146.25 260.00 144.79 259.63 143.34 Z" />
<path fill="#5ab3d2" d=" M 266.90 142.75 C 267.28 142.75 267.66 142.76 268.04 142.82 C 267.35 145.89 266.64 148.96 265.91 152.02 C 265.19 154.65 265.83 157.42 265.16 160.05 C 263.70 165.34 260.90 170.11 258.50 175.01 C 259.80 179.17 256.48 182.47 256.11 186.46 C 257.33 186.55 258.56 186.64 259.79 186.73 C 262.26 182.81 265.01 179.03 266.82 174.74 C 269.40 169.68 272.63 164.92 274.20 159.39 C 274.58 160.25 274.97 161.11 275.36 161.97 C 275.99 159.99 276.62 158.02 277.26 156.05 C 276.73 156.22 275.67 156.55 275.13 156.72 C 275.39 155.76 275.65 154.79 275.91 153.84 C 276.47 153.70 277.60 153.44 278.16 153.30 C 278.26 152.45 278.46 150.73 278.56 149.87 C 278.76 150.14 279.14 150.68 279.33 150.95 C 278.38 155.29 278.57 159.83 277.11 164.07 C 276.02 167.42 274.88 170.75 274.00 174.16 C 272.40 176.67 271.84 179.59 271.40 182.48 C 270.53 183.31 269.65 184.13 268.78 184.96 C 268.68 185.54 268.47 186.69 268.37 187.26 C 265.08 190.16 263.92 194.65 260.67 197.59 C 259.03 203.38 253.91 206.93 249.45 210.48 C 245.83 214.61 241.14 217.51 236.93 220.97 C 233.74 223.52 229.99 225.17 226.35 226.94 C 221.91 229.84 217.06 232.19 212.04 233.87 C 207.36 234.31 202.68 234.92 198.30 236.73 C 197.54 235.92 196.94 234.97 196.13 234.23 C 195.18 235.24 196.13 236.61 196.15 237.78 C 194.15 238.24 192.15 238.71 190.17 239.21 C 188.76 239.55 187.36 239.91 185.97 240.30 C 181.11 240.29 176.24 240.45 171.40 239.85 C 165.36 239.47 159.23 239.91 153.30 238.41 C 153.34 239.23 153.43 240.86 153.47 241.68 C 153.20 241.70 152.66 241.74 152.39 241.76 C 152.45 240.53 152.51 239.30 152.57 238.08 C 151.54 238.14 149.48 238.27 148.45 238.33 C 148.49 237.79 148.56 236.71 148.59 236.17 C 148.29 236.60 147.67 237.47 147.36 237.90 C 143.89 236.98 140.43 236.01 136.96 235.07 C 140.87 232.19 145.12 229.74 149.81 228.38 C 150.69 222.41 153.24 216.96 154.86 211.22 L 154.87 211.17 C 155.03 210.65 155.33 209.62 155.49 209.10 C 154.00 207.09 152.50 205.10 151.00 203.11 C 156.05 203.51 160.53 206.21 165.57 206.64 C 170.82 207.98 176.35 206.26 180.03 202.35 C 182.93 203.33 185.86 204.75 189.00 204.55 C 191.38 204.02 193.42 202.61 195.51 201.42 C 199.64 198.87 204.20 197.11 208.27 194.44 C 213.75 197.89 218.21 203.92 225.28 203.90 C 227.00 205.77 228.52 208.07 231.05 208.94 C 235.05 210.68 239.18 208.21 243.15 207.58 C 244.08 205.39 244.97 203.17 245.78 200.93 C 250.03 196.89 253.35 191.99 257.15 187.54 C 255.75 186.76 254.22 186.48 252.66 186.83 C 253.29 187.18 254.57 187.87 255.20 188.22 C 252.47 191.68 250.54 196.00 246.64 198.36 C 246.73 195.02 246.95 191.20 244.50 188.56 C 241.75 186.00 237.62 185.73 234.90 183.11 C 231.99 180.53 231.10 176.59 229.71 173.13 C 230.42 171.92 231.14 170.72 231.84 169.51 C 233.21 169.44 234.58 169.37 235.95 169.31 C 237.53 162.89 241.35 157.42 244.51 151.72 C 244.94 156.32 243.18 161.34 239.32 164.03 C 239.35 164.57 239.41 165.65 239.45 166.19 C 243.74 161.60 246.27 155.83 249.21 150.37 C 249.51 151.62 251.41 153.03 250.50 154.41 C 249.12 156.68 247.42 158.73 245.83 160.85 C 245.23 163.65 244.35 166.37 243.30 169.03 C 246.89 163.05 250.12 156.80 254.77 151.55 C 253.73 155.02 252.68 158.56 250.63 161.60 C 249.55 163.05 249.16 164.83 248.87 166.58 C 251.61 163.10 253.23 158.93 255.64 155.24 C 256.71 159.11 255.29 162.92 254.48 166.68 C 258.17 162.99 259.76 157.92 262.43 153.56 C 262.94 153.30 263.95 152.77 264.46 152.51 C 265.45 149.32 267.16 146.20 266.90 142.75 Z" />
<path fill="#fffffd" d=" M 81.30 143.64 C 81.89 146.32 82.29 149.03 82.77 151.73 C 84.12 153.48 85.35 155.41 85.40 157.70 C 85.77 162.43 87.93 166.72 88.99 171.29 C 84.42 162.83 80.90 153.37 81.30 143.64 Z" />
<path fill="#fffffd" d=" M 269.12 177.44 C 270.43 172.63 272.40 167.99 274.84 163.64 C 273.74 168.50 272.16 173.43 269.12 177.44 Z" />
<path fill="#cfc6a8" d=" M 218.96 166.03 C 221.46 167.05 224.40 167.53 226.38 169.47 C 228.81 174.45 229.48 180.38 233.50 184.52 C 236.20 188.25 242.09 187.43 244.34 191.61 C 247.35 196.01 243.56 201.02 242.52 205.46 C 239.40 206.20 236.37 207.39 233.17 207.72 C 229.75 207.51 228.26 203.93 225.77 202.11 C 223.45 201.29 220.79 201.69 218.62 200.36 C 214.06 197.58 209.84 193.92 207.39 189.09 C 210.88 184.30 214.58 179.63 217.44 174.41 C 218.96 171.89 218.67 168.84 218.96 166.03 Z" />
<path fill="#fffffd" d=" M 93.91 174.94 C 93.84 173.70 93.76 172.46 93.69 171.23 C 94.77 172.24 95.87 173.24 96.99 174.23 C 96.24 174.06 94.74 173.72 93.99 173.55 L 94.14 175.12 C 93.53 175.18 92.31 175.30 91.70 175.36 C 95.73 181.42 98.96 188.17 104.34 193.21 C 104.56 193.73 104.78 194.26 105.00 194.80 C 101.25 190.91 97.67 186.87 94.12 182.80 C 92.08 180.45 90.61 177.66 89.96 174.61 C 90.94 174.69 92.92 174.85 93.91 174.94 Z" />
<path fill="#cfc6a8" d=" M 127.26 195.94 C 126.69 193.85 127.93 191.95 128.67 190.10 C 130.89 191.96 133.22 193.68 135.78 195.05 C 139.64 197.06 142.37 200.68 146.36 202.49 C 150.24 204.20 152.17 208.16 154.87 211.17 L 154.86 211.22 C 150.47 215.08 151.11 221.47 148.08 226.09 C 145.36 228.19 141.99 229.21 139.17 231.16 C 137.81 231.83 136.30 233.34 134.71 232.39 C 130.79 230.50 127.32 227.81 123.92 225.14 C 125.35 221.76 126.60 218.29 127.28 214.68 C 127.93 211.01 129.77 207.65 130.29 203.96 C 129.62 201.16 127.96 198.72 127.26 195.94 Z" />
<path fill="#cfc6a8" d=" M 201.28 195.69 C 202.65 192.72 205.52 190.94 208.83 191.59 C 206.75 193.67 204.16 195.07 201.28 195.69 Z" />
<path fill="#cfc6a8" d=" M 20.07 252.04 C 22.48 247.36 28.12 245.74 32.98 245.09 C 40.25 244.43 49.36 246.72 51.94 254.46 C 48.16 255.32 44.27 255.25 40.45 254.75 C 40.16 254.18 39.59 253.06 39.30 252.49 C 36.58 252.54 32.97 251.17 30.88 253.50 C 29.97 260.53 30.69 267.67 30.54 274.74 C 33.91 277.10 38.56 276.91 41.16 273.52 C 44.49 273.30 47.83 273.25 51.16 273.26 C 51.34 279.18 45.41 281.79 40.51 282.80 C 34.24 283.92 27.08 283.30 22.06 279.01 C 19.06 276.59 19.87 272.39 19.70 269.02 C 19.93 263.37 19.29 257.66 20.07 252.04 Z" />
<path fill="#cfc6a8" d=" M 62.22 256.35 C 69.37 253.63 77.94 253.60 84.42 258.07 C 81.90 259.87 79.11 261.26 76.18 262.25 C 73.53 261.50 70.63 260.89 67.96 261.96 C 65.55 268.91 68.15 276.39 66.59 283.49 C 63.05 283.32 59.50 283.22 55.95 283.14 C 56.05 276.44 55.48 269.70 56.20 263.03 C 56.43 259.68 59.31 257.45 62.22 256.35 Z" />
<path fill="#cfc6a8" d=" M 86.75 258.74 C 93.55 253.51 103.26 253.43 110.88 256.90 C 113.58 258.18 115.97 260.79 115.89 263.95 C 116.14 267.24 112.85 269.40 110.01 270.04 C 105.16 271.04 100.16 270.57 95.25 270.64 C 95.45 272.62 95.00 275.63 97.59 276.20 C 101.09 277.56 103.95 275.02 106.80 273.48 C 109.90 273.02 113.04 273.28 116.15 273.33 C 115.60 276.21 114.26 279.07 111.49 280.41 C 103.98 284.49 93.74 284.43 86.88 279.04 C 83.76 276.68 84.49 272.40 84.30 268.98 C 84.53 265.52 83.59 261.15 86.75 258.74 Z" />
<path fill="#cfc6a8" d=" M 127.29 256.15 C 133.54 253.38 140.45 254.77 146.80 256.27 C 152.09 254.82 157.67 253.69 163.09 255.26 C 167.35 256.30 172.80 258.83 172.89 263.92 C 173.29 270.30 173.10 276.70 172.88 283.08 C 169.28 283.31 165.67 283.30 162.07 283.10 C 161.60 277.04 162.12 270.96 161.72 264.90 C 161.85 260.59 154.48 259.97 152.50 263.04 C 151.76 269.71 152.45 276.45 152.15 283.15 C 148.61 283.23 145.08 283.29 141.55 283.38 C 140.74 276.91 141.63 270.36 140.88 263.90 C 140.65 261.06 137.16 261.33 135.10 261.41 C 133.68 261.71 131.52 262.22 131.51 264.03 C 131.00 270.45 131.55 276.91 131.26 283.36 C 127.70 283.31 124.14 283.27 120.58 283.23 C 120.79 276.47 120.34 269.70 120.76 262.96 C 120.94 259.40 124.35 257.36 127.29 256.15 Z" />
<path fill="#cfc6a8" d=" M 185.78 255.63 C 192.38 253.74 200.05 254.08 205.84 258.07 C 207.78 259.38 209.14 261.54 209.16 263.93 C 209.42 270.35 209.08 276.79 209.30 283.21 C 205.68 283.23 202.07 283.25 198.46 283.26 C 198.24 276.57 198.40 269.88 198.45 263.19 C 195.60 260.68 191.33 260.87 188.39 263.11 C 188.39 267.03 188.38 270.95 188.37 274.87 C 190.80 276.38 193.67 276.54 196.45 276.65 C 196.17 278.91 196.97 282.41 194.05 283.22 C 188.33 283.61 181.54 281.71 178.18 276.75 C 177.10 272.64 177.63 268.26 177.70 264.04 C 177.53 259.48 181.93 256.77 185.78 255.63 Z" />
<path fill="#5ab3d2" d=" M 213.05 260.94 C 212.97 258.91 211.94 256.23 213.74 254.71 C 223.88 254.33 234.05 254.56 244.20 254.70 C 240.17 261.05 235.45 266.91 230.99 272.96 C 230.31 273.98 229.28 274.99 229.57 276.35 C 234.50 276.82 239.46 276.51 244.41 276.67 C 244.40 278.86 244.39 281.06 244.38 283.26 C 234.25 283.22 224.13 283.14 214.00 283.35 C 214.34 282.28 214.59 281.17 215.13 280.18 C 219.15 273.66 224.67 268.13 228.19 261.28 C 223.15 260.96 218.08 261.49 213.05 260.94 Z" />
<path fill="#5ab3d2" d=" M 251.13 258.11 C 258.44 253.48 268.58 253.32 275.88 258.06 C 278.91 260.03 280.92 264.98 277.67 267.67 C 272.25 272.10 264.79 270.04 258.38 270.62 C 258.70 272.18 258.09 274.24 259.55 275.35 C 261.52 276.91 264.18 276.35 266.52 276.51 C 267.50 275.47 268.48 274.44 269.47 273.41 C 272.59 273.46 275.72 273.31 278.83 273.56 C 279.74 275.49 278.25 277.54 276.95 278.90 C 270.54 283.57 261.67 284.37 254.38 281.40 C 250.98 279.97 247.66 277.01 247.83 273.01 C 247.87 268.02 246.51 261.54 251.13 258.11 Z" />
<path fill="#5ab3d2" d=" M 284.51 261.65 C 290.23 254.23 301.18 252.99 309.46 256.37 C 312.53 257.63 316.04 260.15 315.72 263.90 C 315.79 270.37 315.95 276.85 315.54 283.32 C 312.29 283.27 309.04 283.40 305.80 283.18 C 304.63 276.83 305.91 270.29 305.17 263.90 C 303.70 260.29 297.52 260.25 295.48 263.27 C 294.72 269.57 295.66 275.94 295.13 282.26 C 292.35 284.45 288.00 282.81 284.61 283.30 C 284.46 276.09 284.62 268.87 284.51 261.65 Z" />
<path fill="#fffffd" d=" M 94.80 263.55 C 96.43 262.59 97.98 261.13 99.99 261.23 C 102.09 261.15 103.81 262.48 105.51 263.53 C 101.95 263.87 98.36 263.85 94.80 263.55 Z" />
<path fill="#fffffd" d=" M 258.52 263.59 C 261.14 260.17 266.24 260.75 269.08 263.57 C 265.56 263.79 262.03 263.80 258.52 263.59 Z" />
<path fill="#4d2c23" d=" M 98.89 298.20 C 100.22 294.65 101.94 290.85 105.83 289.55 C 107.60 290.04 109.91 290.69 110.16 292.88 C 109.60 293.40 108.48 294.43 107.93 294.94 C 107.17 293.63 106.46 292.31 105.77 290.97 C 104.36 293.35 103.29 295.90 102.47 298.54 C 104.26 298.57 106.05 298.58 107.84 298.59 C 108.82 295.86 110.04 293.12 112.17 291.09 C 113.99 289.53 116.50 290.14 118.65 290.44 C 119.03 292.31 118.72 294.19 116.85 295.07 C 116.20 293.68 115.56 292.29 114.92 290.91 C 113.34 293.23 112.34 295.86 111.56 298.54 C 112.31 298.52 113.81 298.48 114.56 298.46 L 114.75 300.17 C 113.87 300.18 112.11 300.19 111.23 300.20 C 109.54 304.97 108.81 310.11 106.34 314.58 C 105.03 316.85 101.65 318.31 99.42 316.46 C 98.55 315.18 99.42 313.75 100.50 312.97 C 101.39 313.77 102.09 315.07 103.49 314.88 C 105.00 310.04 106.06 305.06 107.59 300.21 C 105.75 300.19 103.90 300.19 102.06 300.20 C 100.69 304.74 99.75 309.46 97.73 313.78 C 97.07 315.53 95.30 316.37 93.86 317.37 C 92.35 320.11 90.51 316.56 90.05 314.98 C 90.10 311.60 93.13 314.58 94.15 315.74 C 95.73 310.71 96.88 305.55 98.48 300.53 C 97.63 300.31 95.91 299.87 95.05 299.65 C 96.27 299.02 97.58 298.59 98.89 298.20 Z" />
<path fill="#4d2c23" d=" M 74.01 292.88 C 77.83 290.40 82.62 291.01 86.88 291.67 C 86.33 293.58 85.69 295.46 84.95 297.32 C 84.37 295.71 83.81 294.11 83.24 292.51 C 75.28 291.06 70.04 301.70 74.09 307.90 C 77.86 310.54 81.24 306.55 83.75 304.16 C 83.28 305.91 82.75 307.66 82.23 309.41 C 78.13 310.61 72.70 311.10 69.66 307.49 C 66.47 302.64 69.20 295.60 74.01 292.88 Z" />
<path fill="#4d2c23" d=" M 143.70 291.84 C 148.19 291.50 153.96 290.09 157.41 293.81 C 159.06 297.31 156.20 300.28 152.99 301.16 C 153.35 304.42 154.04 307.75 156.62 310.05 C 154.67 309.88 152.72 309.69 150.78 309.49 C 150.01 306.55 149.21 303.53 149.39 300.47 C 152.01 299.84 154.44 297.26 153.36 294.45 C 153.24 292.76 151.21 293.27 150.09 292.83 C 148.87 297.97 146.75 302.83 145.61 307.99 C 146.46 308.57 147.30 309.16 148.15 309.75 C 145.00 309.83 141.86 309.77 138.72 309.80 C 139.74 308.83 141.26 308.24 141.79 306.87 C 143.42 302.56 144.57 298.09 146.04 293.73 C 145.46 293.25 144.29 292.31 143.70 291.84 Z" />
<path fill="#4d2c23" d=" M 203.97 291.84 C 205.18 291.50 206.44 291.48 207.69 291.39 C 207.53 292.60 207.46 293.85 207.09 295.03 C 205.92 295.45 204.66 295.38 203.44 295.49 C 203.58 294.26 203.69 293.04 203.97 291.84 Z" />
<path fill="#4d2c23" d=" M 243.95 294.99 C 247.79 290.73 254.10 290.21 259.33 291.82 C 258.88 293.42 258.44 295.03 258.03 296.64 C 257.78 296.60 257.27 296.52 257.02 296.48 C 256.59 295.14 256.44 293.57 255.29 292.61 C 247.58 291.07 241.98 302.75 247.08 308.18 C 250.87 310.36 253.62 306.20 256.30 304.22 C 255.82 306.01 255.21 307.77 254.53 309.49 C 250.48 310.65 245.39 311.06 242.31 307.62 C 239.24 303.82 240.98 298.29 243.95 294.99 Z" />
<path fill="#4d2c23" d=" M 191.55 299.31 C 193.95 298.87 195.36 295.80 197.62 295.81 C 197.68 296.42 197.82 297.63 197.88 298.24 C 198.80 298.67 199.71 299.11 200.62 299.57 C 202.31 298.93 204.16 297.57 205.77 299.18 L 206.22 299.76 C 208.40 300.92 210.09 297.65 212.45 298.15 C 212.74 298.82 213.32 300.15 213.61 300.81 C 215.09 299.66 216.72 297.53 218.87 298.38 C 220.68 298.72 219.64 300.73 219.52 301.93 C 218.96 303.99 217.95 305.88 217.11 307.83 C 218.09 307.28 220.03 306.16 221.00 305.61 C 219.65 308.69 216.59 310.21 213.39 310.62 C 213.46 306.80 215.69 303.51 216.51 299.85 C 212.97 302.40 211.49 306.62 209.44 310.28 C 208.84 310.26 207.64 310.22 207.04 310.20 C 207.40 306.94 208.61 303.88 209.84 300.87 C 208.87 301.12 206.95 301.61 205.99 301.86 C 203.74 302.91 203.87 305.95 202.72 307.89 L 206.72 305.66 C 205.26 308.45 201.62 311.69 198.43 309.45 C 199.61 306.61 200.83 303.80 202.02 300.97 C 201.26 301.30 199.73 301.98 198.97 302.31 C 199.16 301.63 199.55 300.28 199.75 299.60 C 195.41 299.86 195.81 305.06 194.21 307.95 C 195.65 307.11 197.12 306.31 198.60 305.55 C 197.20 308.10 194.62 309.51 192.06 310.64 C 191.66 310.30 190.87 309.62 190.48 309.28 C 191.26 306.23 192.27 303.25 193.45 300.34 C 192.94 300.30 191.93 300.22 191.42 300.18 L 191.55 299.31 Z" />
<path fill="#4d2c23" d=" M 127.73 298.63 C 129.36 297.99 132.49 297.81 132.70 300.12 C 133.15 302.24 130.63 303.17 129.51 304.52 C 128.79 304.09 128.07 303.66 127.36 303.23 C 127.87 302.18 128.89 300.07 129.41 299.02 C 128.09 300.43 126.92 301.97 125.76 303.52 C 126.42 303.96 127.09 304.40 127.75 304.85 L 125.89 305.85 L 125.43 307.13 C 127.30 308.93 129.30 306.52 131.21 306.03 C 129.87 309.66 125.50 311.36 122.11 309.37 C 121.43 305.04 123.35 300.12 127.73 298.63 Z" />
<path fill="#4d2c23" d=" M 167.21 309.76 C 167.53 304.85 170.97 299.77 175.96 298.75 C 176.81 298.45 178.50 297.85 179.34 297.55 C 179.72 297.78 180.47 298.24 180.85 298.47 C 180.62 301.74 178.80 304.67 177.82 307.77 C 179.28 307.16 180.77 306.61 182.30 306.19 C 183.37 306.83 185.51 308.11 186.58 308.75 C 185.81 306.23 182.80 304.23 183.44 301.39 C 184.09 297.97 190.59 296.65 190.71 301.04 C 189.71 303.35 187.25 300.12 185.64 299.92 C 186.84 302.02 188.27 303.98 189.56 306.02 C 188.25 307.87 186.81 310.35 184.23 310.31 C 182.46 310.61 181.44 308.76 180.43 307.68 C 178.85 309.32 176.73 310.11 174.57 310.63 C 174.57 309.68 174.58 307.80 174.58 306.86 C 172.72 309.07 170.16 310.49 167.21 309.76 Z" />
<path fill="#4d2c23" d=" M 259.91 299.84 C 262.09 297.53 267.27 297.34 268.04 301.05 C 269.28 306.73 263.00 312.35 257.53 309.55 C 255.94 306.16 256.92 302.10 259.91 299.84 Z" />
<path fill="#4d2c23" d=" M 85.77 309.24 C 82.18 304.99 86.99 298.36 91.90 297.84 C 90.34 301.55 87.09 305.13 88.52 309.45 C 91.02 306.95 92.18 303.61 93.04 300.28 L 91.28 300.27 C 91.94 299.52 92.61 298.78 93.28 298.06 C 100.35 302.09 91.92 313.86 85.77 309.24 Z" />
<path fill="#4d2c23" d=" M 116.65 298.48 C 117.27 298.91 117.88 299.35 118.48 299.80 C 116.42 301.22 116.01 303.49 116.11 305.82 L 114.77 305.80 C 116.09 309.33 119.04 306.86 121.35 306.00 C 119.90 308.63 116.98 310.84 113.86 310.15 C 111.87 309.89 111.53 307.60 111.75 305.98 C 112.14 302.86 114.41 300.47 116.65 298.48 Z" />
<path fill="#4d2c23" d=" M 118.97 302.79 C 118.89 301.13 118.79 299.47 118.66 297.82 C 120.74 297.86 124.00 299.55 122.12 301.90 C 121.09 303.59 118.99 304.10 117.48 305.20 C 117.60 304.36 117.85 302.69 117.97 301.85 L 118.97 302.79 Z" />
<path fill="#4d2c23" d=" M 156.37 308.51 C 155.81 303.62 158.72 298.55 163.90 297.83 C 162.23 301.57 159.10 305.07 160.22 309.48 C 162.91 307.13 164.19 303.74 164.90 300.33 L 163.23 300.22 C 163.93 299.50 164.64 298.80 165.36 298.10 C 170.24 301.25 167.15 309.16 162.06 310.04 C 159.97 310.93 158.12 309.39 156.37 308.51 Z" />
<path fill="#4d2c23" d=" M 221.16 306.00 C 220.45 302.13 222.77 298.59 226.74 297.86 C 226.48 298.63 225.98 300.18 225.72 300.96 C 224.79 302.61 224.24 304.44 224.04 306.33 C 226.91 305.06 227.30 301.84 228.27 299.26 C 229.76 297.94 232.04 298.90 233.82 298.54 C 233.28 299.75 232.42 300.65 231.24 301.24 C 230.60 304.79 227.83 306.99 224.42 307.73 C 226.47 309.10 228.54 310.44 230.53 311.91 C 231.10 317.30 223.85 318.06 220.08 316.67 C 218.33 316.48 218.46 314.49 217.95 313.24 C 219.35 312.34 220.76 311.45 222.20 310.61 C 222.02 310.25 221.68 309.53 221.50 309.18 C 222.00 308.41 222.50 307.64 223.01 306.88 C 222.54 306.66 221.62 306.22 221.16 306.00 Z" />
<path fill="#fffffd" d=" M 171.33 308.30 C 171.94 305.01 173.16 300.34 177.19 299.97 C 176.20 303.31 174.24 306.32 171.33 308.30 Z" />
<path fill="#fffffd" d=" M 260.05 308.68 C 260.08 304.96 261.82 301.59 264.35 298.95 C 265.57 302.27 263.52 305.41 262.14 308.29 C 261.61 308.38 260.57 308.58 260.05 308.68 Z" />
<path fill="#4d2c23" d=" M 268.83 306.52 C 269.64 306.61 270.44 306.71 271.25 306.81 C 271.26 307.77 271.27 308.72 271.29 309.68 C 270.12 309.60 268.95 309.53 267.78 309.43 C 268.05 308.70 268.57 307.24 268.83 306.52 Z" />
<path fill="#fffffd" d=" M 222.30 312.18 C 224.33 310.71 226.21 312.79 227.72 314.03 C 226.68 316.25 223.96 315.79 222.09 315.02 C 222.14 314.31 222.25 312.89 222.30 312.18 Z" />
</svg>
